<?xml version="1.0" standalone="no"?>
<!DOCTYPE svg PUBLIC "-//W3C//DTD SVG 1.1//EN" "http://www.w3.org/Graphics/SVG/1.1/DTD/svg11.dtd" >
<svg xmlns="http://www.w3.org/2000/svg">
<metadata>
Created by FontForge 20120731 at Tue May  9 20:41:50 2017
 By admin
</metadata>
<defs>
<font id="iconfont" horiz-adv-x="1024" >
  <font-face 
    font-family="iconfont"
    font-weight="500"
    font-stretch="normal"
    units-per-em="1024"
    panose-1="2 0 6 3 0 0 0 0 0 0"
    ascent="896"
    descent="-128"
    x-height="792"
    bbox="44 -262 1319 1052"
    underline-thickness="0"
    underline-position="0"
    unicode-range="U+0078-E8F1"
  />
<missing-glyph 
 />
    <glyph glyph-name=".notdef" 
 />
    <glyph glyph-name=".notdef" 
 />
    <glyph glyph-name=".null" horiz-adv-x="0" 
 />
    <glyph glyph-name="nonmarkingreturn" horiz-adv-x="341" 
 />
    <glyph glyph-name="x" unicode="x" horiz-adv-x="1001" 
d="M281 543q-27 -1 -53 -1h-83q-18 0 -36.5 -6t-32.5 -18.5t-23 -32t-9 -45.5v-76h912v41q0 16 -0.5 30t-0.5 18q0 13 -5 29t-17 29.5t-31.5 22.5t-49.5 9h-133v-97h-438v97zM955 310v-52q0 -23 0.5 -52t0.5 -58t-10.5 -47.5t-26 -30t-33 -16t-31.5 -4.5q-14 -1 -29.5 -0.5
t-29.5 0.5h-32l-45 128h-439l-44 -128h-29h-34q-20 0 -45 1q-25 0 -41 9.5t-25.5 23t-13.5 29.5t-4 30v167h911zM163 247q-12 0 -21 -8.5t-9 -21.5t9 -21.5t21 -8.5q13 0 22 8.5t9 21.5t-9 21.5t-22 8.5zM316 123q-8 -26 -14 -48q-5 -19 -10.5 -37t-7.5 -25t-3 -15t1 -14.5
t9.5 -10.5t21.5 -4h37h67h81h80h64h36q23 0 34 12t2 38q-5 13 -9.5 30.5t-9.5 34.5q-5 19 -11 39h-368zM336 498v228q0 11 2.5 23t10 21.5t20.5 15.5t34 6h188q31 0 51.5 -14.5t20.5 -52.5v-227h-327z" />
    <glyph glyph-name="lmusic" unicode="&#xe600;" 
d="M806.5 431.5q-5.5 0.5 -10.5 8t-7 27.5q-4 32 -21 47.5t-53 22.5q-37 7 -65.5 30t-47.5 43q-19 17 -29 12t-10 -18v-114v-100v-102v-132q0 -20 -7 -44.5t-26.5 -46t-51.5 -37t-80 -17.5q-49 -3 -88.5 17t-61 50.5t-21 66.5t31 67.5t66 44t69 13.5t59.5 -4.5t38 -10.5v234
q0 98 1 221q0 24 12.5 39.5t33.5 17.5q17 3 28.5 -6.5t23 -26.5t28.5 -39t46 -42q25 -19 43.5 -27.5t34.5 -15.5t32 -17t35 -32t23 -45t0.5 -42t-12 -31t-14 -11.5z" />
    <glyph glyph-name="search" unicode="&#xe672;" 
d="M885 47l-230 231q68 83 68 190q0 122 -86.5 208.5t-209 86.5t-209 -86.5t-86.5 -209t86.5 -209t209.5 -86.5q110 0 194 73l229 -231q7 -7 17 -7t16.5 7t6.5 16.5t-6 16.5v0zM428 219q-103 0 -176 73t-73 176t73 175.5t176 72.5t175.5 -72.5t72.5 -175.5t-72.5 -176
t-175.5 -73z" />
    <glyph glyph-name="set" unicode="&#xe62d;" 
d="M512 537q-63 0 -108 -44.5t-45 -107.5t45 -108t108 -45t107.5 45t44.5 108t-44.5 107.5t-107.5 44.5zM511.5 270q-47.5 0 -81 33.5t-33.5 81t33.5 81t81 33.5t81 -33.5t33.5 -81t-33.5 -81t-81 -33.5zM893 308v153l-111 18q-5 16 -12 30l65 91l-108 108l-91 -65
q-14 7 -30 12l-18 111h-153l-18 -111q-12 -3 -30 -12l-91 64l-108 -107l65 -91q-7 -14 -12 -30l-110 -18v-153l110 -18q6 -18 13 -31l-65 -90l108 -108l91 65q17 -8 29 -12l18 -110h153l18 110q17 6 31 13l91 -66l108 108l-66 92q9 17 12 29zM746 301q-3 -10 -10 -24
q-10 -20 3 -38l47 -66l-62 -62l-65 47q-10 7 -22 7q-10 0 -18 -4q-11 -6 -24 -11q-23 -7 -26 -30l-13 -78h-88l-13 78q-4 24 -27 31q-9 2 -24 9q-8 4 -16 4q-12 0 -22 -7l-65 -46l-62 62l46 64q14 19 3 40q-6 10 -11 25q-7 22 -30 26l-78 13v88l78 13q24 4 31 26q3 12 9 24
q11 20 -3 40l-46 64l62 61l65 -45q9 -7 22 -7q9 0 17 4q15 7 24 10q23 6 27 30l13 79h88l13 -79q4 -23 26 -30q13 -4 23 -10q8 -4 18 -4q13 0 23 7l64 46l62 -62l-46 -64q-14 -20 -3 -41q6 -10 10 -23q7 -22 30 -26l79 -13v-88l-79 -13q-23 -4 -30 -27z" />
    <glyph glyph-name="delete" unicode="&#xe614;" 
d="M638 516h43v-338h-43v338zM533 178v338h-43v-338h22h21zM343 516h42v-338h-42v338zM681 643v84q0 18 -12.5 30.5t-30.5 12.5h-253q-18 0 -30 -12.5t-12 -30.5v-84h-212v-42h85v-549q0 -18 12.5 -30.5t29.5 -12.5h507q17 0 29.5 12.5t12.5 30.5v549h85v42h-211zM385 727
h253v-84h-253v84zM765 52h-507v549h507v-549z" />
    <glyph glyph-name="list" unicode="&#xe610;" 
d="M892 566q0 -9 -24 -9h-59q-16 0 -32 -16t-16 -32v-357q0 -53 -33 -91.5t-83 -38.5h-70q-51 0 -87 36.5t-36 88t36 88t87 36.5h70q37 0 68 -20v231l0.5 1l0.5 1q-1 5 -1 9q0 54 28 83t82 29q1 0 2 -0.5l1 -0.5l0.5 0.5t1.5 0.5l40 -1q24 0 24 -12v-26zM639 224h-66
q-30 0 -52 -23t-22 -55t22 -54.5t52 -22.5h66q31 0 52.5 22.5t21.5 54.5t-21.5 55t-52.5 23zM607 533h-464q-12 0 -12 8v32q0 8 12 8h464q11 0 11 -8v-32q0 -8 -11 -8zM607 699h-464q-12 0 -12 8v32q0 8 12 8h464q11 0 11 -8v-32q0 -8 -11 -8zM595 366h-452q-12 0 -12 8v32
q0 8 12 8h452q12 0 12 -8v-32q0 -8 -12 -8z" />
    <glyph glyph-name="headset" unicode="&#xe625;" 
d="M206 191l-75 -9q-2 13 -3.5 33t0.5 73.5t11 103t33.5 109t62.5 102.5q98 111 276 111q182 0 281 -113q37 -43 61 -102.5t32 -108.5t9.5 -102t-0.5 -73.5t-3 -32.5l-76 10q2 11 3.5 27t0.5 63t-7.5 89t-26 93t-50.5 87q-76 87 -224 87q-144 0 -219 -85q-32 -36 -52.5 -87
t-27.5 -94.5t-8.5 -89t0 -64.5t2.5 -27v0zM765 55h-102v279h102v-279zM359 55h-101v279h101v-279z" />
    <glyph glyph-name="email" unicode="&#xe635;" 
d="M525 646h291q38 0 56.5 -17.5t18.5 -56.5q-1 -62 -1 -178.5v-177.5q0 -50 -22 -70.5t-73 -21.5q-302 0 -557 1q-50 0 -78 28t-29 77v320q0 52 22 73.5t75 22.5h297v0zM517 171q250 0 279 -1q27 0 38 10t11 38q-1 50 -1 133v134q0 3 0.5 11t0.5 12.5t-2.5 10t-9.5 8.5
q-6 1 -9.5 1.5t-8.5 -2.5t-7.5 -5t-7.5 -6.5t-7 -6.5q-11 -8 -105 -82.5t-143 -114.5q-20 -16 -35 -16t-34 16q-47 39 -133 107.5t-118 94.5q-1 1 -5.5 4.5t-6 4.5l-6 4t-5.5 3t-6 1.5t-7 -1.5q-6 -1 -9 -6t-3 -8.5t0.5 -11t0.5 -9.5v-128t-1 -128q0 -35 16 -51.5t51 -15.5
h273zM195 596q28 -25 28 -26q135 -107 156 -123q32 -24 45 -34.5t35.5 -23t29.5 -16t25.5 -3.5t25.5 4t29 16.5t35 23.5t44 35q13 11 180 147h-633z" />
    <glyph glyph-name="voice" unicode="&#xe899;" 
d="M536 735q-8 3 -17 3q-16 0 -28 -10l-196 -172h-123q-17 0 -29 -12t-12 -29v-264q0 -17 12 -29t29 -12h124l196 -170q11 -10 27 -10q9 0 17 3q24 12 24 38v626q0 26 -24 38zM519 71l-208 180h-139v264h139l208 182v-626zM644 487v-42q28 0 48.5 -20t20.5 -49t-20.5 -49
t-48.5 -20v-42q46 0 78.5 32.5t32.5 78.5t-32.5 78.5t-78.5 32.5zM755 599v-47q44 -29 70.5 -75t26.5 -101t-26.5 -101t-70.5 -75v-47q62 31 100 91t38 132t-38 132t-100 91z" />
    <glyph glyph-name="add" unicode="&#xe621;" 
d="M512 1q-104 0 -192 51.5t-139.5 139.5t-51.5 192t51.5 192t139.5 139.5t192 51.5t192 -51.5t139.5 -139.5t51.5 -192t-51.5 -192t-139.5 -139.5t-192 -51.5zM703 432h-143v143q0 20 -14 34t-34 14t-34 -14t-14 -34v-143h-143q-20 0 -34 -14t-14 -34t14 -34t34 -14h143
v-143q0 -20 14 -34t34 -14t34 14t14 34v143h143q20 0 34 14t14 34t-14 34t-34 14z" />
    <glyph glyph-name="rida" unicode="&#xe628;" horiz-adv-x="1112" 
d="M852 679l-40 -40q99 -109 99 -257.5t-99 -258.5l41 -41q75 77 101.5 188t-0.5 221.5t-102 187.5zM759 586l-41 -41q60 -70 60 -163.5t-59 -165.5l40 -40q77 88 77 205.5t-77 204.5zM305 639l-40 40q-75 -77 -102 -187.5t0 -221.5t101 -188l41 41q-99 110 -99 258.5
t99 257.5zM358 586q-77 -87 -77 -204.5t77 -205.5l41 40q-60 72 -60 165.5t60 163.5zM558.5 511q-54.5 0 -93 -38.5t-38.5 -93t38.5 -92.5t93 -38t93 38t38.5 92.5t-38.5 93t-93 38.5z" />
    <glyph glyph-name="index" unicode="&#xe609;" 
d="M803 103q-46 52 -99 114h62v459h75v-459h60q-60 -69 -98 -114zM133 225h431v-51h-431v51zM133 434h514v-52h-514v52zM133 642h514v-51h-514v51z" />
    <glyph glyph-name="download" unicode="&#xe640;" 
d="M870 59h-716q-12 0 -20 -8t-8 -19.5t8 -19.5t20 -8h716q12 0 20 8t8 19.5t-8 19.5t-20 8v0v0zM491 119q9 -9 20 -9v0v0q12 0 21 9l346 346q8 8 8 20t-8.5 20.5t-20 8.5t-20.5 -9l-297 -297v538v0q0 12 -8.5 20.5t-20 8.5t-20 -8.5t-8.5 -20.5v0v-538l-297 297
q-9 9 -20.5 9t-20 -8.5t-8.5 -20.5t8 -20l346 -346v0zM491 119z" />
    <glyph glyph-name="iconfont911yuanhuanbiaoqian" unicode="&#xe634;" 
d="M512 767q-104 0 -192.5 -51t-139.5 -139.5t-51 -192.5t51 -192t139.5 -139.5t192.5 -51.5t192 51.5t139.5 139.5t51.5 192t-51.5 192.5t-139.5 139.5t-192 51zM511.5 205q-74.5 0 -127 52.5t-52.5 127t52.5 127t127 52.5t127.5 -52.5t53 -127t-53 -127t-127.5 -52.5z" />
    <glyph glyph-name="down" unicode="&#xe695;" 
d="M512 166q-22 0 -38 16l-329 329q-15 15 -15 37.5t15.5 38t37.5 15.5t38 -16l291 -291l291 291q16 16 38 16t37.5 -15.5t15.5 -38t-15 -38.5l-329 -328q-16 -16 -38 -16z" />
    <glyph glyph-name="right" unicode="&#xe6ab;" 
d="M714 351l-329 -328q-15 -16 -37.5 -16t-38 15.5t-15.5 38t16 37.5l291 291l-291 291q-16 16 -16 38t15.5 38t38 16t38.5 -16l328 -329q16 -16 16 -38t-16 -38z" />
    <glyph glyph-name="go" unicode="&#xe646;" 
d="M183 768l658 -379l-658 -380v759z" />
    <glyph glyph-name="love" unicode="&#xe631;" 
d="M840 659q-54 53 -150 53q-26 0 -54 -9q-26 -9 -51 -25q-25 -17 -41 -29q-16 -13 -32 -29q-15 15 -32 29q-19 14 -41 29q-24 15 -51 25q-28 9 -54 9q-96 0 -150 -53t-54 -147q0 -28 10 -58.5t23 -51.5q12 -21 29 -42q15 -19 23 -28q7 -7 12 -11l266 -257q8 -8 19 -8t19 8
l266 256q97 98 97 192t-54 147zM760 360l-248 -238l-248 239q-80 80 -80 151q0 35 9 61q9 27 23.5 42.5t35 25.5t40 13.5t41.5 3.5q23 0 48 -11q26 -11 47 -28q20 -15 37 -30q15 -14 26 -27q7 -9 21 -9q13 0 21 9q10 12 25 27q16 14 37 30q22 17 47.5 28t47.5 11t42 -4
q19 -3 40 -13t35 -26q14 -15 23 -42q10 -26 10 -61q0 -71 -80 -152z" />
    <glyph glyph-name="un" unicode="&#xe604;" 
d="M512 168l-370 370h741z" />
    <glyph glyph-name="logo" unicode="&#xe622;" 
d="M752 444q-65 65 -158 71q-6 17 -10 36q-7 30 -9 66q-1 10 -1 20v21v0v0q3 31 27 52t56 20q22 0 40.5 -12t29.5 -32l40 8q-12 30 -37.5 50t-58.5 25q-51 7 -91.5 -25t-45.5 -82v-3v-5v-21q1 -5 1 -12q3 -60 18 -107v0q-33 -3 -64 -16v0v0q-47 -18 -83 -54l8 7
q-53 -52 -53 -125q0 -35 13 -67q16 -37 46.5 -64t69.5 -38q21 -6 43 -6q12 0 24 2q53 8 88 49t35 95q0 25 -8 48q-11 43 -44 101l-15 27q12 -2 24 -6q65 -19 106 -73t41 -123q0 -71 -44 -127q-30 -33 -68 -56q-67 -40 -146 -40q-32 0 -63 7q-97 22 -160 100.5t-63 179.5
q0 105 68.5 185t170.5 97l-5 40q-103 -17 -178 -91q-46 -46 -71 -106t-25 -124q0 -136 96 -232q47 -47 107.5 -71.5t126.5 -23.5q88 1 163 45q33 17 59 44q10 9 18 20q54 67 54 153q0 37 -11 72q-18 58 -61 101zM425 461l2 1q-1 0 -2 -1v0zM634 333q4 -17 6 -37
q0 -39 -25.5 -68t-62.5 -36q-9 -1 -17 -1q-17 0 -34 4q-44 12 -72 48t-28 83q0 26 9 50q13 30 37 52q4 3 9 6q50 38 112 42q5 -11 11 -22q4 -9 12 -22q0 -1 1 -3t2 -2q30 -54 40 -94z" />
    <glyph glyph-name="prev" unicode="&#xe62a;" 
d="M194 10h41q15 0 25 10.5t10 24.5v283q7 -5 14 -9l481 -298q41 -26 70.5 -9.5t29.5 64.5v627q0 48 -29 63.5t-70 -10.5l-484 -312q-5 -4 -12 -9v297q0 15 -10 25t-25 10h-41q-14 0 -24.5 -10t-10.5 -25v-687q0 -14 10.5 -24.5t24.5 -10.5v0v0v0z" />
    <glyph glyph-name="puase" unicode="&#xe67b;" horiz-adv-x="1756" 
d="M1248 1052q-30 0 -51 -20.5t-21 -50.5v-1172q0 -30 21 -50.5t51 -20.5t50.5 20.5t20.5 50.5v1172q0 30 -20.5 50.5t-50.5 20.5v0zM514 1052q-30 0 -50.5 -20.5t-20.5 -50.5v-1172q0 -30 20.5 -50.5t50.5 -20.5t51 20.5t21 50.5v1172q0 29 -21 50t-51 21v0z" />
    <glyph glyph-name="left" unicode="&#xe60c;" 
d="M307 359l350 -339q12 -13 30 -13t33 13q12 12 12 30t-12 30l-320 309l317 311q12 12 12 30t-12.5 30.5t-30.5 12.5t-32 -13l-350 -339q-12 -14 -11.5 -32t14.5 -30z" />
    <glyph glyph-name="play" unicode="&#xe6c9;" 
d="M129 596v1q0 35 25 60t60 25h596q35 0 60 -25t25 -60v-1v-424v-1q0 -35 -25 -60t-60 -25h-596q-35 0 -60 25t-25 60v1v424zM172 639v-510h680v510h-680zM640 384l-213 -128v256z" />
    <glyph glyph-name="skin" unicode="&#xe8f1;" 
d="M651 51l-23 1h-260q-29 0 -42 9q-16 9 -23 26q-3 9 -3 31v264q-3 -2 -9 -5q-25 -11 -51 7q-4 3 -13 12l-8 8l-28 27l-15 15q-9 8 -14 13l-4 5q-3 2 -5 4q-14 13 -18 23q-8 18 -6 29q5 23 29 44l9 9q6 6 10 9l123 121q14 14 25 18l19 5q50 3 67 0q10 -2 21 -11
q8 -6 16 -17l1 -2q6 -8 20 -13q10 -5 31 -9h15q5 0 11 1q32 7 47 19q2 3 5 6q7 10 12 14l14 9q8 3 12 4h50q26 0 37 -7q9 -4 22 -18l116 -113q5 -5 14 -13q11 -10 15 -15l4 -5q15 -14 20 -27l1 -5v-5q3 -19 -13 -41l-1 -2l-74 -71q-22 -26 -43 -30t-39 7v-212v-71l-1 -4
q-4 -20 -19 -31q-17 -13 -54 -13v0zM383 88l268 -1q25 0 31 5q4 3 6 9q0 11 0.5 34t0.5 35v256l23 16l20 -19q15 -14 25 -12q8 1 23 18l2 2l72 71q6 8 5 13v3v2q-3 5 -10 11l-5 5q-4 5 -14 14t-15 14l-115 112q-9 10 -13 12q-2 2 -21 2q-9 0 -14 -1h-6h-6h-15q-1 0 -3 -0.5
l-2 -0.5l-8 -5q-1 0 -2.5 -2t-2.5 -3q-5 -8 -11 -13q-24 -19 -63 -26q-16 -3 -26 -2l-12 1q-25 5 -41 11q-22 10 -34 25l-1 1q-5 7 -10 11l-3 1q-1 1 -2.5 1.5t-2.5 0.5h-46l-11 -1q-8 0 -18 -11l-22 -22l-102 -99l-4.5 -4.5t-4.5 -3.5l-10 -10q-16 -15 -17 -24q0 -1 1 -4
l1 -3q2 -6 10 -13q2 -1 6 -5l5 -5l11 -11l2 -1q7 -8 15 -16l37 -35q5 -6 7 -7q9 -6 16.5 -3t18.5 14l15 16l26 -15v-309q0 -14 1 -18q2 -5 7 -9q5 -3 23 -3l15 1v0z" />
    <glyph glyph-name="music" unicode="&#xe61d;" 
d="M846 597v139q0 18 -13.5 30t-30.5 9l-428 -67q-13 -2 -22 -12.5t-9 -24.5v-443q-20 8 -43 8q-48 0 -82 -34t-34 -82.5t34 -82.5t82.5 -34t82.5 34t34 83q0 2 -1 6h1v404l355 55v-284q-20 9 -43 9q-48 0 -82 -34.5t-34 -82.5t34 -82t82.5 -34t82.5 34t34 82v10v394v0z" />
    <glyph glyph-name="lic" unicode="&#xe629;" 
d="M818 765h-612q-31 0 -53 -22t-22 -53v-611q0 -32 22 -54t53 -22h611q32 0 54 22t22 53v612q0 31 -22 53t-53 22zM824 72h-624v624h624v-624zM720 200v0v360q-2 30 -42 32h-223q-20 -2 -22 -26q2 -25 22 -27h206q6 0 6 -6v-306h1h-72q-6 0 -12.5 -7t-7.5 -18q1 -11 7 -18
t13 -8h108q14 2 16 24zM474 464q-19 1 -20 26q1 23 20 25h155q23 -2 25 -25q-2 -25 -23 -26h-157zM320 541q-8 1 -16 8.5t-9 18.5q1 10 8 16.5t14 7.5h61q8 -1 15 -7.5t8 -16.5q-1 -12 -8 -19t-15 -8h-58zM393 228v222q1 21 -7 31t-25 9h-45q-21 -2 -23 -26q2 -27 23 -29h18
q6 0 6 -6v-223v-2v0q0 -5 2 -9q5 -15 21 -19q3 0 6 1h53q8 2 15.5 9t7.5 18q0 10 -7.5 16.5t-15.5 7.5h-29v0zM499 252q-40 0 -40 38v109q0 38 34 38h112q39 0 38 -32v-115q0 -38 -34 -38h-110zM512 307q2 -4 6 -6h66q6 0 6 6v73q0 6 -6 6h-66q-6 0 -6 -6v-73v0z" />
    <glyph glyph-name="cicle" unicode="&#xe620;" 
d="M864 308.5q-17 5.5 -33 -2.5t-21 -25q-23 -70 -80.5 -113t-129.5 -43h-163q-92 1 -156.5 67t-64.5 159t64.5 159t156.5 66h225q1 -22 5 -45q2 -11 11 -17t20 -3q92 30 161 90q8 7 8 18.5t-9 18.5q-70 59 -160 89q-11 4 -20 -2t-11 -17q-4 -22 -5 -45h-225
q-127 0 -217 -91.5t-90 -221t90 -221t217 -91.5h163q99 0 179.5 59.5t111.5 156.5q6 17 -2 33t-25 21.5z" />
    <glyph glyph-name="one" unicode="&#xe623;" 
d="M864 308.5q-17 5.5 -33 -2.5t-21 -25q-23 -70 -80.5 -113t-129.5 -43h-163q-92 1 -156.5 67t-64.5 159t64.5 159t156.5 66h225q1 -22 5 -45q2 -11 11 -17t20 -3q92 30 161 90q8 7 8 18.5t-9 18.5q-70 59 -160 89q-11 4 -20 -2t-11 -17q-4 -22 -5 -45h-225
q-127 0 -217 -91.5t-90 -221t90 -221t217 -91.5h163q99 0 179.5 59.5t111.5 156.5q6 17 -2 33t-25 21.5zM544 202v286h-25q-15 -16 -35 -29q-19 -12 -40 -18v-32q41 12 68 39v-246h32z" />
    <glyph glyph-name="next" unicode="&#xe601;" 
d="M829 768h-41q-14 0 -24.5 -10t-10.5 -25v-283q-7 6 -13 10l-481 298q-41 25 -70 9t-29 -65v-626q0 -48 29 -63.5t69 10.5l483 312q6 4 12 9v-297q0 -15 10.5 -25t24.5 -10h41q15 0 25 10t10 25v686q0 15 -10 25t-25 10v0v0z" />
    <glyph glyph-name="friends" unicode="&#xe608;" 
d="M895 101v4q-1 83 -46.5 151.5t-119.5 104.5v4q73 58 73 149q0 76 -52 131.5t-127 60.5l-2 -3q-13 0 -21.5 -9t-8.5 -20v-2q0 -13 8.5 -21.5t21.5 -8.5q2 0 6 1t6 1q1 -1 2.5 -3.5t2.5 -3.5q42 -11 68.5 -45t26.5 -78q0 -35 -17 -64t-46 -47l-3 -2q-20 -7 -27 -28l-4 -4
l2 -2v-13q0 -19 12.5 -32t31.5 -13q7 0 11 3q2 -5 9 -11q56 -28 91 -80.5t36 -117.5v-4q0 -13 9.5 -22.5t22.5 -9.5t22.5 9.5t9.5 22.5zM704 105q-2 85 -48.5 153.5t-122.5 102.5q75 60 75 151q0 80 -56 135.5t-136 55.5t-136 -55.5t-56 -135.5q0 -46 20.5 -85.5t54.5 -65.5
q-74 -34 -120.5 -102t-49.5 -152v-11q0 -12 9.5 -21.5t22 -9.5t22.5 9.5t10 21.5q0 88 60 153t146 71h38q86 -6 145.5 -69t61.5 -150v-5q0 -12 9.5 -21.5t22.5 -9.5t22.5 9.5t9.5 21.5v3q-4 4 -4 6v0zM416 386q-53 0 -90.5 37.5t-37.5 90.5t37.5 90.5t90.5 37.5t90.5 -37.5
t37.5 -90.5t-37.5 -90.5t-90.5 -37.5z" />
    <glyph glyph-name="random" unicode="&#xe660;" horiz-adv-x="1280" 
d="M666 524q-25 -24 -37.5 -51t-14.5 -44t-3 -50q-2 -53 -10 -81q-29 -90 -129 -147q-84 -48 -184 -56q11 0 -2 -2q-30 -4 -78 -4h-14q-14 0 -24 10.5t-10 25.5t10.5 25.5t25.5 10.5v0q146 -2 240 52q76 43 96 107q6 19 7 62q1 27 3 43.5t8.5 44t23 54t42.5 51.5
q107 106 298 106h6v64q0 15 9.5 20.5t22.5 -3.5l153 -94q13 -8 13 -20t-13 -20l-154 -99q-13 -9 -22 -4t-9 21v63h-6q-84 0 -143.5 -20.5t-104.5 -64.5zM196 609v0q-15 0 -25.5 10.5t-10.5 25.5t10 25.5t25 10.5q109 1 197 -27q79 -25 134 -73q13 -11 13 -28
q0 -15 -10.5 -25.5t-25.5 -10.5q-14 0 -24 10q-97 84 -283 82zM1105 147q13 -8 13 -19.5t-13 -20.5l-154 -99q-13 -8 -22 -3t-9 20v64h-6q-176 0 -293 115q-9 11 -9 25t10.5 24.5t25.5 10.5q14 0 24 -9q95 -94 242 -94h6v63q0 16 9.5 21t22.5 -3l153 -95v0z" />
  </font>
</defs>
</svg>
